# xmcd
#
# Track frame offsets:
#	150
#	15635
#	33262
#	50568
#	63541
#	76483
#	95886
#	117554
#	136212
#	157134
#	174642
#
# Disc length: 2558
#
# Revision: 1
# Processed by: cddbd v1.5.1PL0 Copyright (c) Steve Scherf et al.
# Submitted via: FreeRIP 2.51 
# Normalized: r0:TRMNUM
#
DISCID=9a09fc0b
DTITLE=Trent Willmon - Trent Willmon
DYEAR=2004
DGENRE=Country
TTITLE0=Beer Man
TTITLE1=Dixie Rose Deluxe's Honky Tonk...
TTITLE2=Home Sweet Holiday Inn
TTITLE3=She Don't Love Me
TTITLE4=The Good Life
TTITLE5=Population 81
TTITLE6=Medina Daydreamin'
TTITLE7=The Wishing Well
TTITLE8=All Day Long
TTITLE9=Every Now and Then
TTITLE10=Here
EXTD=
EXTT0=
EXTT1=
EXTT2=
EXTT3=
EXTT4=
EXTT5=
EXTT6=
EXTT7=
EXTT8=
EXTT9=
EXTT10=
PLAYORDER=
